<svg xmlns="http://www.w3.org/2000/svg" xmlns:xlink="http://www.w3.org/1999/xlink" width="1000" zoomAndPan="magnify" viewBox="0 0 750 749.999995" height="1000" preserveAspectRatio="xMidYMid meet" version="1.0"><defs><clipPath id="1d6d05ae8f"><path d="M 75 75 L 675 75 L 675 675 L 75 675 Z M 75 75 " clip-rule="nonzero"/></clipPath></defs><g clip-path="url(#1d6d05ae8f)"><path fill="#000000" d="M 374.75 75.09375 C 209.375 75.09375 74.832031 209.636719 74.832031 375.015625 C 74.832031 540.398438 209.375 674.941406 374.75 674.941406 C 540.128906 674.941406 674.679688 540.398438 674.679688 375.015625 C 674.679688 209.636719 540.128906 75.09375 374.75 75.09375 Z M 374.75 645.359375 C 225.683594 645.359375 104.414062 524.082031 104.414062 375.015625 C 104.414062 225.953125 225.683594 104.675781 374.75 104.675781 C 523.816406 104.675781 645.097656 225.953125 645.097656 375.015625 C 645.097656 524.082031 523.816406 645.359375 374.75 645.359375 Z M 374.75 645.359375 " fill-opacity="1" fill-rule="nonzero"/></g><path fill="#000000" d="M 454.328125 504.316406 L 454.328125 437.484375 L 434.980469 437.484375 L 387 362.667969 L 368.066406 392.191406 L 397.117188 437.484375 L 379.550781 437.484375 L 359.289062 405.890625 L 318.484375 342.273438 L 257.414062 437.484375 L 242.308594 437.484375 L 242.308594 260.648438 L 506.894531 260.648438 L 506.894531 389.148438 L 539.101562 389.148438 L 539.101562 242.625 C 539.101562 235.0625 532.972656 228.933594 525.40625 228.933594 L 224.113281 228.933594 C 216.542969 228.933594 210.417969 235.0625 210.417969 242.625 L 210.417969 507.398438 C 210.417969 514.960938 216.542969 521.089844 224.113281 521.089844 L 498.859375 521.089844 L 498.859375 504.316406 Z M 454.328125 504.316406 " fill-opacity="1" fill-rule="nonzero"/><path fill="#000000" d="M 549.769531 453.402344 L 549.769531 408.871094 L 518.582031 408.871094 L 518.582031 453.402344 L 474.046875 453.402344 L 474.046875 484.597656 L 518.582031 484.597656 L 518.582031 529.125 L 549.769531 529.125 L 549.769531 484.597656 L 594.296875 484.597656 L 594.296875 453.402344 Z M 549.769531 453.402344 " fill-opacity="1" fill-rule="nonzero"/><path fill="#000000" d="M 483.613281 319.972656 C 483.613281 320.902344 483.566406 321.828125 483.476562 322.753906 C 483.382812 323.675781 483.246094 324.59375 483.066406 325.503906 C 482.886719 326.414062 482.660156 327.3125 482.390625 328.199219 C 482.121094 329.089844 481.808594 329.960938 481.453125 330.820312 C 481.097656 331.675781 480.703125 332.515625 480.265625 333.332031 C 479.828125 334.152344 479.351562 334.945312 478.835938 335.71875 C 478.320312 336.492188 477.765625 337.234375 477.179688 337.953125 C 476.589844 338.667969 475.96875 339.355469 475.3125 340.011719 C 474.65625 340.667969 473.96875 341.292969 473.25 341.878906 C 472.53125 342.46875 471.789062 343.023438 471.015625 343.539062 C 470.246094 344.054688 469.449219 344.53125 468.632812 344.96875 C 467.8125 345.40625 466.976562 345.800781 466.117188 346.15625 C 465.261719 346.511719 464.386719 346.824219 463.5 347.09375 C 462.609375 347.363281 461.710938 347.585938 460.800781 347.769531 C 459.890625 347.949219 458.972656 348.085938 458.050781 348.175781 C 457.125 348.269531 456.199219 348.3125 455.273438 348.3125 C 454.34375 348.3125 453.417969 348.269531 452.496094 348.175781 C 451.570312 348.085938 450.65625 347.949219 449.746094 347.769531 C 448.832031 347.585938 447.933594 347.363281 447.046875 347.09375 C 446.160156 346.824219 445.285156 346.511719 444.429688 346.15625 C 443.570312 345.800781 442.734375 345.40625 441.914062 344.96875 C 441.09375 344.53125 440.300781 344.054688 439.527344 343.539062 C 438.757812 343.023438 438.011719 342.46875 437.296875 341.878906 C 436.578125 341.292969 435.890625 340.667969 435.234375 340.011719 C 434.578125 339.355469 433.957031 338.667969 433.367188 337.953125 C 432.777344 337.234375 432.226562 336.492188 431.710938 335.71875 C 431.195312 334.945312 430.71875 334.152344 430.28125 333.332031 C 429.84375 332.515625 429.445312 331.675781 429.089844 330.820312 C 428.734375 329.960938 428.425781 329.089844 428.15625 328.199219 C 427.886719 327.3125 427.660156 326.414062 427.480469 325.503906 C 427.296875 324.59375 427.160156 323.675781 427.070312 322.753906 C 426.980469 321.828125 426.933594 320.902344 426.933594 319.972656 C 426.933594 319.046875 426.980469 318.121094 427.070312 317.195312 C 427.160156 316.273438 427.296875 315.355469 427.480469 314.445312 C 427.660156 313.535156 427.886719 312.636719 428.15625 311.75 C 428.425781 310.859375 428.734375 309.988281 429.089844 309.128906 C 429.445312 308.273438 429.84375 307.433594 430.28125 306.617188 C 430.71875 305.796875 431.195312 305.003906 431.710938 304.230469 C 432.226562 303.457031 432.777344 302.714844 433.367188 301.996094 C 433.957031 301.28125 434.578125 300.59375 435.234375 299.9375 C 435.890625 299.28125 436.578125 298.65625 437.296875 298.070312 C 438.011719 297.480469 438.757812 296.925781 439.527344 296.410156 C 440.300781 295.894531 441.09375 295.417969 441.914062 294.980469 C 442.734375 294.542969 443.570312 294.148438 444.429688 293.792969 C 445.285156 293.4375 446.160156 293.125 447.046875 292.855469 C 447.933594 292.585938 448.832031 292.363281 449.746094 292.179688 C 450.65625 292 451.570312 291.863281 452.496094 291.773438 C 453.417969 291.679688 454.34375 291.636719 455.273438 291.636719 C 456.199219 291.636719 457.125 291.679688 458.050781 291.773438 C 458.972656 291.863281 459.890625 292 460.800781 292.179688 C 461.710938 292.363281 462.609375 292.585938 463.5 292.855469 C 464.386719 293.125 465.261719 293.4375 466.117188 293.792969 C 466.976562 294.148438 467.8125 294.542969 468.632812 294.980469 C 469.449219 295.417969 470.246094 295.894531 471.015625 296.410156 C 471.789062 296.925781 472.53125 297.480469 473.25 298.070312 C 473.96875 298.65625 474.65625 299.28125 475.3125 299.9375 C 475.96875 300.59375 476.589844 301.28125 477.179688 301.996094 C 477.765625 302.714844 478.320312 303.457031 478.835938 304.230469 C 479.351562 305.003906 479.828125 305.796875 480.265625 306.617188 C 480.703125 307.433594 481.097656 308.273438 481.453125 309.128906 C 481.808594 309.988281 482.121094 310.859375 482.390625 311.75 C 482.660156 312.636719 482.886719 313.535156 483.066406 314.445312 C 483.246094 315.355469 483.382812 316.273438 483.476562 317.195312 C 483.566406 318.121094 483.613281 319.046875 483.613281 319.972656 Z M 483.613281 319.972656 " fill-opacity="1" fill-rule="nonzero"/></svg>